<?xml version="1.0" encoding="utf-8"?>
<!-- Generator: Adobe Illustrator 26.2.1, SVG Export Plug-In . SVG Version: 6.00 Build 0)  -->
<svg version="1.1" id="Layer_1" xmlns="http://www.w3.org/2000/svg" xmlns:xlink="http://www.w3.org/1999/xlink" x="0px" y="0px"
	 viewBox="0 0 1024 1024" style="enable-background:new 0 0 1024 1024;" xml:space="preserve">
<path d="M0,0v1024h1024V0H0z M353.1,840c0,7.4-6,13.4-13.4,13.4H214.8c-7.4,0-13.4-6-13.4-13.4V439.2h-14.1
	c-7.9,0-14.4-6.4-14.4-14.4v-28.2c0-7.9,6.4-14.4,14.4-14.4h27.6h0.7h124.3c7.4,0,13.4,6,13.2,13.5V840z M277.4,345.9
	c-48.4,0-87.7-39.3-87.7-87.7s39.3-87.7,87.7-87.7s87.7,39.3,87.7,87.7S325.8,345.9,277.4,345.9z M616.4,853.5H424.8
	c-7.9,0-14.4-6.4-14.4-14.4v-97.6c0-8,6.5-14.6,14.6-14.6h130.4h18.7h42.2c101.6,0,144.1-74.5,144.1-197.3s-42.6-197.3-144.1-197.3
	h-53.9c-3.8,0-7,3.1-7,7v346c0,7.2-5.8,13-13,13H425c-8.1,0-14.6-6.5-14.6-14.6V220c0-7.9,6.4-14.4,14.4-14.4h191.5
	c172.2,0,292.1,90.9,292.2,323.9C908.5,763.6,786.6,853.5,616.4,853.5z"/>
</svg>
