<svg width="40" height="40" viewBox="0 0 40 40" fill="none" xmlns="http://www.w3.org/2000/svg">
<path fill-rule="evenodd" clip-rule="evenodd" d="M15.6552 11.0432L11.3103 19.0288C10.8966 19.6763 10.8966 20.5396 11.3103 21.187L15.6552 29.1727L12.7586 34.5684C12.7586 34.5684 12.5517 34.3525 12.5517 34.1367C11.1034 31.3309 6.96552 23.777 5.31034 21.187C4.89655 20.5396 4.89655 19.8921 5.31034 19.2446C6.75862 16.4388 10.8966 8.88489 12.5517 6.29496C12.5517 6.07913 12.7586 6.07914 12.7586 5.86331L15.6552 11.0432ZM16.4828 5H25.7931C26.4138 5 27.0345 5.43165 27.4483 6.07914C28.8966 8.88489 33.0345 16.4388 34.6897 19.0288C35.1034 19.6763 35.1034 20.3237 34.6897 20.9712C33.2414 23.777 29.1034 31.3309 27.4483 33.9209C27.0345 34.5683 26.4138 35 25.7931 35H16.4828L24.3448 20.9712C24.7586 20.3237 24.7586 19.6763 24.3448 19.0288L16.4828 5Z" />
</svg>
