<svg width="40" height="40" viewBox="0 0 40 40" fill="none" xmlns="http://www.w3.org/2000/svg">
<path fill-rule="evenodd" clip-rule="evenodd" d="M22.9993 19.375C23.8354 19.375 24.6715 20.1042 24.6715 20.8333V33.4722C24.6715 34.2014 24.1141 34.9306 22.9993 34.9306H13.2448C12.9661 34.9306 12.4087 34.6875 12.13 34.4444L5.44118 28.8542C4.04768 27.6389 6.27728 25.4514 7.67078 26.9097L11.2939 30.0694V17.9167C11.2939 15.7292 14.6383 15.7292 14.6383 17.9167V16.4583C14.6383 15.7292 15.4744 15 16.3105 15C17.1466 15 17.9827 15.7292 17.9827 16.4583V17.9167C17.9827 17.1875 18.8188 16.4583 19.6549 16.4583C20.491 16.4583 21.3271 17.1875 21.3271 17.9167V20.8333C21.3271 19.8611 21.8845 19.375 22.9993 19.375Z" />
<path d="M2.5 15C2.5 9.47715 6.97715 5 12.5 5H27.5C33.0228 5 37.5 9.47715 37.5 15V25C37.5 30.5228 33.0228 35 27.5 35H26.8619C27.0692 34.51 27.1715 33.9882 27.1715 33.4722V30H27.5C30.2614 30 32.5 27.7614 32.5 25V15C32.5 12.2386 30.2614 10 27.5 10H12.5C9.73857 10 7.5 12.2386 7.5 15V24.0299C7.14638 23.9459 6.78192 23.9123 6.41489 23.9305C5.36214 23.9826 4.45637 24.4482 3.81171 25.0456C3.32923 25.4926 2.8967 26.1043 2.66893 26.8401C2.558 26.2436 2.5 25.6286 2.5 25V15Z" />
</svg>
