<svg width="40" height="40" viewBox="0 0 40 40" fill="none" xmlns="http://www.w3.org/2000/svg">
<path fill-rule="evenodd" clip-rule="evenodd" d="M24.6971 32.5255C31.5413 30.0843 35.2079 22.2725 32.7635 15.4372C30.3192 8.60181 22.4972 4.94002 15.4085 7.38121C8.31984 9.82241 4.89773 17.6342 7.3421 24.4696C9.78646 31.3049 17.6084 35.2109 24.6971 32.5255ZM21.5194 16.6578C22.4972 14.2166 23.9638 12.5077 26.1637 11.2871C28.1192 12.5077 29.8303 14.2166 30.5636 16.6578C32.2746 21.296 30.3192 26.4225 26.1637 28.8637C21.7639 26.4225 19.8084 21.296 21.5194 16.6578ZM27.8748 22.0284C28.6081 22.0284 29.3414 21.296 29.3414 20.3196C29.5858 19.3431 29.097 18.6107 28.3637 18.3666C27.6303 18.3666 27.1415 18.8548 26.897 19.8313C26.897 21.0519 27.3859 21.7843 27.8748 22.0284ZM27.3859 4.20766C36.1856 8.35769 39.8522 18.6107 35.9412 27.399C32.0302 36.1873 21.5194 39.8491 12.7197 35.9432C3.91998 32.0373 0.0089922 21.296 4.16442 12.5077C8.31984 3.71942 18.5862 0.057621 27.3859 4.20766Z" />
</svg>
