<svg width="48" height="48" viewBox="0 0 48 48" fill="none" xmlns="http://www.w3.org/2000/svg">
<g clip-path="url(#clip0_8_277)">
<rect width="48" height="48" rx="4" fill="#E00034"/>
<circle cx="24" cy="24" r="24" fill="#E00034"/>
<path fill-rule="evenodd" clip-rule="evenodd" d="M11.008 15.9496C13.3989 15.9496 15.3371 14.0114 15.3371 11.6205C15.3371 9.22959 13.3989 7.29138 11.008 7.29138C8.61709 7.29138 6.67889 9.22959 6.67889 11.6205C6.67889 14.0114 8.61709 15.9496 11.008 15.9496ZM14.0906 17.7409H6.56533C6.17253 17.7409 5.85376 18.0597 5.85376 18.4524V19.845C5.85376 20.2378 6.17253 20.5566 6.56533 20.5566H7.2616V40.3363C7.2616 40.7025 7.55866 40.9995 7.9248 40.9995H14.0901C14.4562 40.9995 14.7533 40.7025 14.7533 40.3363V18.4046C14.7533 18.0384 14.4562 17.7414 14.0901 17.7414L14.0906 17.7409ZM18.281 9.02637H27.7342C36.2286 9.02637 42.1461 13.465 42.1461 25.0134C42.1461 36.5618 36.1334 41 27.7342 41H18.281C17.8882 41 17.5695 40.6812 17.5695 40.2884V35.4703C17.5695 35.0716 17.8927 34.7484 18.2914 34.7484H27.7342C32.7453 34.7484 34.8449 31.0741 34.8449 25.0134C34.8449 18.9528 32.7453 15.278 27.7342 15.278H25.0755C24.8835 15.278 24.7281 15.4334 24.7281 15.6254V32.698C24.7281 33.0533 24.4399 33.341 24.0851 33.341H18.2914C17.8927 33.341 17.5695 33.0178 17.5695 32.6191V9.73793C17.5695 9.34514 17.8882 9.02637 18.281 9.02637Z" fill="white"/>
</g>
<defs>
<clipPath id="clip0_8_277">
<rect width="48" height="48" rx="4" fill="white"/>
</clipPath>
</defs>
</svg>
