<?xml version="1.0" encoding="UTF-8"?><svg id="a" xmlns="http://www.w3.org/2000/svg" viewBox="0 0 226 50"><defs><style>.c{fill:#fff;}.d{fill:#bf0000;}</style></defs><circle id="b" class="d" cx="24.76" cy="24.76" r="24.76"/><circle class="c" cx="13.43" cy="12.49" r="4.24"/><path class="c" d="M16.46,18.49h-7.38c-.39,0-.7,.31-.7,.7v1.37c0,.39,.31,.7,.7,.7h.68v19.39c0,.36,.29,.65,.65,.65h6.04c.36,0,.65-.29,.65-.65V19.14c0-.36-.29-.65-.65-.65Z"/><path class="c" d="M29.83,9.94h-9.27c-.39,0-.7,.31-.7,.7v22.43c0,.39,.32,.71,.71,.71h5.68c.35,0,.63-.28,.63-.63V16.41c0-.19,.15-.34,.34-.34h2.61c4.91,0,6.97,3.6,6.97,9.54s-2.06,9.54-6.97,9.54h-9.26c-.39,0-.71,.32-.71,.71v4.72c0,.39,.31,.7,.7,.7h9.27c8.23,0,14.13-4.35,14.13-15.67s-5.8-15.67-14.13-15.67Z"/><path class="c" d="M85.77,34.33c0,6.03-5.03,7.5-10.11,7.5-2.09,0-4.22-.33-5.93-.71v-5.79h.62c1.61,.52,3.89,.9,5.46,.9,1.71,0,3.08-.38,3.08-1.71,0-3.04-9.4-1.28-9.4-9.44,0-4.18,3.23-7.17,8.45-7.17,2.56,0,4.7,.19,6.74,.85v5.89h-.38c-1.47-.52-3.7-1.04-5.41-1.04-1.33,0-2.56,.62-2.56,1.57,0,3.08,9.44,1.14,9.44,9.16Zm8.08-11.63v-4.22h-6.26v22.78h6.74v-12.62c1.19-2.28,2.94-3.7,6.26-3.7h.71v-6.6c-.38-.05-.67-.05-1-.05-3.37,0-5.41,1.42-6.45,4.41Zm26.03,4.08v14.48h-6.17v-2.09c-1.57,1.57-3.8,2.37-5.74,2.37-3.18,0-6.12-2.14-6.12-6.69,0-5.55,4.27-6.31,7.97-6.98l3.32-.57v-1.14c0-1.66-.62-2.47-2.61-2.47-1.28,0-4.22,.47-6.83,1.57l-.48-5.89c2.37-1,5.41-1.47,8.02-1.47,5.51,0,8.64,2.47,8.64,8.88Zm-6.74,4.84l-2.33,.38c-.9,.14-2.09,.66-2.09,2.14s.76,2.09,1.66,2.09c.85,0,1.85-.47,2.75-1.09v-3.51Zm9.45,9.63h6.74V8.96l-6.74,1v31.3Zm54.79-7.12c-1.66,1.09-3.04,1.61-4.13,1.61s-1.99-.57-1.99-2.71v-14.57h-6.74v15.71c0,5.79,3.32,7.64,6.55,7.64,2.75,0,4.79-1.09,6.84-2.61v2.04h6.22V18.48h-6.74v15.66Zm30.33-15.66h-8.4l-5.41,8.4V8.96l-6.74,1v31.3h6.74v-9.02l5.89,9.02h8.45l-8.12-11.68,7.59-11.11Zm18.09,12.81h-11.96c.09,3.56,2.18,4.51,5.27,4.51,1.85,0,4.32-.66,6.17-1.52v6.08c-2.85,1.04-5.55,1.47-7.78,1.47-6.74,0-10.58-3.8-10.58-11.91,0-6.36,3.32-12.01,10.11-12.01s8.97,5.08,8.97,9.97c0,1.61-.09,2.52-.19,3.42Zm-6.6-4.84c0-2.09-.62-3.27-2.33-3.27s-3.04,1.52-3.04,3.75h5.36v-.47ZM63.98,9.47c-1.86,0-3.37,1.51-3.37,3.37s1.51,3.37,3.37,3.37,3.37-1.51,3.37-3.37-1.51-3.37-3.37-3.37Zm83.77,0h-10.11v24.2h7.12V15.68h2.99c4.98,0,7.07,3.65,7.07,9.68s-2.09,9.68-7.07,9.68h-10.11v6.22h10.11c8.35,0,14.33-4.41,14.33-15.9s-5.89-15.9-14.33-15.9ZM61.27,18.49h-2.03v2.76h1.38v20.04h6.72V18.49h-6.07Z"/></svg>